{
	"asset":{
		"generator":"Khronos glTF Blender I/O v3.6.27",
		"version":"2.0"
	},
	"scene":0,
	"scenes":[
		{
			"name":"Scene",
			"nodes":[
				0
			]
		}
	],
	"nodes":[
		{
			"mesh":0,
			"name":"card"
		}
	],
	"materials":[
		{
			"doubleSided":true,
			"name":"front-mat",
			"pbrMetallicRoughness":{
				"baseColorFactor":[
					0.8000000715255737,
					0.02914760261774063,
					0.24925504624843597,
					1
				],
				"metallicFactor":0,
				"roughnessFactor":0.5
			}
		},
		{
			"name":"back-mat",
			"pbrMetallicRoughness":{
				"baseColorFactor":[
					0,
					0.02531679905951023,
					0.8000000715255737,
					1
				],
				"metallicFactor":0,
				"roughnessFactor":0.5
			}
		},
		{
			"doubleSided":true,
			"name":"lateral-mat",
			"pbrMetallicRoughness":{
				"baseColorFactor":[
					0.0036418267991393805,
					0.0002328758273506537,
					0.0004636785597540438,
					1
				],
				"metallicFactor":0,
				"roughnessFactor":0.5
			}
		}
	],
	"meshes":[
		{
			"name":"card-mesh",
			"primitives":[
				{
					"attributes":{
						"POSITION":0,
						"NORMAL":1,
						"TEXCOORD_0":2
					},
					"indices":3,
					"material":0
				},
				{
					"attributes":{
						"POSITION":4,
						"NORMAL":5,
						"TEXCOORD_0":6
					},
					"indices":7,
					"material":1
				},
				{
					"attributes":{
						"POSITION":8,
						"NORMAL":9,
						"TEXCOORD_0":10
					},
					"indices":11,
					"material":2
				}
			]
		}
	],
	"accessors":[
		{
			"bufferView":0,
			"componentType":5126,
			"count":23,
			"max":[
				0.9734483361244202,
				1.3588298559188843,
				0.06581617146730423
			],
			"min":[
				-0.9734483361244202,
				-1.3588298559188843,
				0.06581547111272812
			],
			"type":"VEC3"
		},
		{
			"bufferView":1,
			"componentType":5126,
			"count":23,
			"type":"VEC3"
		},
		{
			"bufferView":2,
			"componentType":5126,
			"count":23,
			"type":"VEC2"
		},
		{
			"bufferView":3,
			"componentType":5123,
			"count":66,
			"type":"SCALAR"
		},
		{
			"bufferView":4,
			"componentType":5126,
			"count":23,
			"max":[
				0.9734483361244202,
				1.358831524848938,
				-0.0778154581785202
			],
			"min":[
				-0.9734483361244202,
				-1.358831524848938,
				-0.07781726121902466
			],
			"type":"VEC3"
		},
		{
			"bufferView":5,
			"componentType":5126,
			"count":23,
			"type":"VEC3"
		},
		{
			"bufferView":6,
			"componentType":5126,
			"count":23,
			"type":"VEC2"
		},
		{
			"bufferView":7,
			"componentType":5123,
			"count":66,
			"type":"SCALAR"
		},
		{
			"bufferView":8,
			"componentType":5126,
			"count":44,
			"max":[
				0.9734483361244202,
				1.358831524848938,
				0.06581617146730423
			],
			"min":[
				-0.9734483361244202,
				-1.358831524848938,
				-0.07781726121902466
			],
			"type":"VEC3"
		},
		{
			"bufferView":9,
			"componentType":5126,
			"count":44,
			"type":"VEC3"
		},
		{
			"bufferView":10,
			"componentType":5126,
			"count":44,
			"type":"VEC2"
		},
		{
			"bufferView":11,
			"componentType":5123,
			"count":132,
			"type":"SCALAR"
		}
	],
	"bufferViews":[
		{
			"buffer":0,
			"byteLength":276,
			"byteOffset":0,
			"target":34962
		},
		{
			"buffer":0,
			"byteLength":276,
			"byteOffset":276,
			"target":34962
		},
		{
			"buffer":0,
			"byteLength":184,
			"byteOffset":552,
			"target":34962
		},
		{
			"buffer":0,
			"byteLength":132,
			"byteOffset":736,
			"target":34963
		},
		{
			"buffer":0,
			"byteLength":276,
			"byteOffset":868,
			"target":34962
		},
		{
			"buffer":0,
			"byteLength":276,
			"byteOffset":1144,
			"target":34962
		},
		{
			"buffer":0,
			"byteLength":184,
			"byteOffset":1420,
			"target":34962
		},
		{
			"buffer":0,
			"byteLength":132,
			"byteOffset":1604,
			"target":34963
		},
		{
			"buffer":0,
			"byteLength":528,
			"byteOffset":1736,
			"target":34962
		},
		{
			"buffer":0,
			"byteLength":528,
			"byteOffset":2264,
			"target":34962
		},
		{
			"buffer":0,
			"byteLength":352,
			"byteOffset":2792,
			"target":34962
		},
		{
			"buffer":0,
			"byteLength":264,
			"byteOffset":3144,
			"target":34963
		}
	],
	"buffers":[
		{
			"byteLength":3408,
			"uri":"card.bin"
		}
	]
}
